SplineFontDB: 3.2
FontName: Pixel-Maz
FullName: Pixel Maz Regular
FamilyName: Pixel Maz
Weight: Book
Copyright: Copyright allthatmaz 2008
Version: 1.0
ItalicAngle: 0
UnderlinePosition: 77
UnderlineWidth: 51
Ascent: 819
Descent: 205
InvalidEm: 0
sfntRevision: 0x00010000
LayerCount: 2
Layer: 0 1 "Back" 1
Layer: 1 1 "Fore" 0
XUID: [1021 316 2131805191 9311673]
StyleMap: 0x0040
FSType: 4
OS2Version: 4
OS2_WeightWidthSlopeOnly: 0
OS2_UseTypoMetrics: 0
CreationTime: 1223643061
ModificationTime: 1697219290
PfmFamily: 81
TTFWeight: 400
TTFWidth: 5
LineGap: 0
VLineGap: 0
Panose: 0 0 4 0 0 0 0 0 0 0
OS2TypoAscent: 512
OS2TypoAOffset: 0
OS2TypoDescent: -192
OS2TypoDOffset: 0
OS2TypoLinegap: 0
OS2WinAscent: 512
OS2WinAOffset: 0
OS2WinDescent: 192
OS2WinDOffset: 0
HheadAscent: 512
HheadAOffset: 0
HheadDescent: -192
HheadDOffset: 0
OS2SubXSize: 512
OS2SubYSize: 512
OS2SubXOff: 0
OS2SubYOff: -96
OS2SupXSize: 512
OS2SupYSize: 512
OS2SupXOff: 0
OS2SupYOff: 512
OS2StrikeYSize: 51
OS2StrikeYPos: 204
OS2CapHeight: 320
OS2XHeight: 256
OS2Vendor: 'FSTR'
OS2CodePages: 00000001.00000000
OS2UnicodeRanges: 80000003.00000000.00000000.00000000
DEI: 91125
TtTable: prep
PUSHW_1
 10
CALL
SVTCA[x-axis]
PUSHW_3
 3
 12
 12
CALL
SVTCA[x-axis]
PUSHW_8
 14
 88
 72
 56
 40
 24
 0
 18
CALL
SVTCA[y-axis]
PUSHW_8
 12
 88
 72
 56
 40
 24
 0
 18
CALL
PUSHW_8
 13
 44
 36
 28
 20
 12
 0
 18
CALL
SVTCA[y-axis]
PUSHW_3
 15
 4
 17
CALL
PUSHW_1
 11
DUP
RCVT
RDTG
ROUND[Black]
RTG
WCVTP
PUSHW_1
 0
CALL
SVTCA[y-axis]
PUSHW_3
 1
 1
 2
CALL
SVTCA[x-axis]
PUSHW_3
 2
 1
 2
CALL
SVTCA[x-axis]
PUSHW_8
 2
 88
 72
 56
 40
 24
 0
 8
CALL
SVTCA[y-axis]
PUSHW_8
 1
 88
 72
 56
 40
 24
 0
 8
CALL
SVTCA[y-axis]
PUSHW_3
 3
 4
 7
CALL
PUSHW_1
 0
DUP
RCVT
RDTG
ROUND[Black]
RTG
WCVTP
EndTTInstrs
TtTable: fpgm
PUSHW_1
 0
FDEF
MPPEM
PUSHW_1
 9
LT
IF
PUSHB_2
 1
 1
INSTCTRL
EIF
PUSHW_1
 511
SCANCTRL
PUSHW_1
 68
SCVTCI
PUSHW_2
 9
 3
SDS
SDB
ENDF
PUSHW_1
 1
FDEF
DUP
DUP
RCVT
ROUND[Black]
WCVTP
PUSHB_1
 1
ADD
ENDF
PUSHW_1
 2
FDEF
PUSHW_1
 1

StartChar: .notdef
Encoding: 65536 -1 0
Width: 576
GlyphClass: 1
Flags: W
LayerCount: 2
Fore
SplineSet
32 0 m 1,0,-1
 32 512 l 1,1,-1
 544 512 l 1,2,-1
 544 0 l 1,3,-1
 32 0 l 1,0,-1
EndSplineSet
EndChar

StartChar: uni001E
Encoding: 30 30 31
Width: 384
GlyphClass: 2
Flags: W
LayerCount: 2
Fore
SplineSet
96 192 m 1,0,-1
 128 224 l 1,1,-1
 256 224 l 1,2,-1
 288 192 l 1,3,-1
 288 64 l 1,4,-1
 256 32 l 1,5,-1
 128 32 l 1,6,-1
 96 64 l 1,7,-1
 96 192 l 1,0,-1
EndSplineSet
EndChar

StartChar: uni001F
Encoding: 31 31 32
Width: 384
GlyphClass: 2
Flags: W
LayerCount: 2
Fore
SplineSet
94 184 m 1,0,-1
 118 208 l 1,1,-1
 166 208 l 1,2,-1
 190 184 l 1,3,-1
 190 136 l 1,4,-1
 166 112 l 1,5,-1
 118 112 l 1,6,-1
 94 136 l 1,7,-1
 94 184 l 1,0,-1
EndSplineSet
EndChar

StartChar: exclam
Encoding: 33 33 34
Width: 384
GlyphClass: 2
Flags: W
LayerCount: 2
Fore
SplineSet
160 128 m 1,0,-1
 160 384 l 1,1,-1
 224 384 l 1,2,-1
 224 128 l 1,3,-1
 160 128 l 1,0,-1
160 0 m 1,4,-1
 160 64 l 1,5,-1
 224 64 l 1,6,-1
 224 0 l 1,7,-1
 160 0 l 1,4,-1
EndSplineSet
EndChar

StartChar: quotedbl
Encoding: 34 34 35
Width: 384
GlyphClass: 2
Flags: W
LayerCount: 2
Fore
SplineSet
96 256 m 1,0,-1
 96 384 l 1,1,-1
 160 384 l 1,2,-1
 160 256 l 1,3,-1
 96 256 l 1,0,-1
224 256 m 1,4,-1
 224 384 l 1,5,-1
 288 384 l 1,6,-1
 288 256 l 1,7,-1
 224 256 l 1,4,-1
EndSplineSet
EndChar

StartChar: numbersign
Encoding: 35 35 36
Width: 384
GlyphClass: 2
Flags: W
LayerCount: 2
Fore
SplineSet
96 0 m 1,0,-1
 96 64 l 1,1,-1
 32 64 l 1,2,-1
 32 128 l 1,3,-1
 96 128 l 1,4,-1
 96 192 l 1,5,-1
 32 192 l 1,6,-1
 32 256 l 1,7,-1
 96 256 l 1,8,-1
 96 320 l 1,9,-1
 160 320 l 1,10,-1
 160 256 l 1,11,-1
 224 256 l 1,12,-1
 224 320 l 1,13,-1
 288 320 l 1,14,-1
 288 256 l 1,15,-1
 352 256 l 1,16,-1
 352 192 l 1,17,-1
 288 192 l 1,18,-1
 288 128 l 1,19,-1
 352 128 l 1,20,-1
 352 64 l 1,21,-1
 288 64 l 1,22,-1
 288 0 l 1,23,-1
 224 0 l 1,24,-1
 224 64 l 1,25,-1
 160 64 l 1,26,-1
 160 0 l 1,27,-1
 96 0 l 1,0,-1
224 128 m 1,28,-1
 224 192 l 1,29,-1
 160 192 l 1,30,-1
 160 128 l 1,31,-1
 224 128 l 1,28,-1
EndSplineSet
EndChar

StartChar: dollar
Encoding: 36 36 37
Width: 384
GlyphClass: 2
Flags: W
LayerCount: 2
Fore
SplineSet
288 128 m 1,0,-1
 288 64 l 1,1,-1
 224 64 l 1,2,-1
 224 0 l 1,3,-1
 160 0 l 1,4,-1
 160 64 l 1,5,-1
 32 64 l 1,6,-1
 32 128 l 1,7,-1
 160 128 l 1,8,-1
 160 192 l 1,9,-1
 96 192 l 1,10,-1
 96 256 l 1,11,-1
 32 256 l 1,12,-1
 32 320 l 1,13,-1
 96 320 l 1,14,-1
 96 256 l 1,15,-1
 160 256 l 1,16,-1
 160 320 l 1,17,-1
 96 320 l 1,18,-1
 96 384 l 1,19,-1
 160 384 l 1,20,-1
 160 448 l 1,21,-1
 224 448 l 1,22,-1
 224 384 l 1,23,-1
 352 384 l 1,24,-1
 352 320 l 1,25,-1
 224 320 l 1,26,-1
 224 256 l 1,27,-1
 288 256 l 1,28,-1
 288 192 l 1,29,-1
 224 192 l 1,30,-1
 224 128 l 1,31,-1
 288 128 l 1,0,-1
288 128 m 1,32,-1
 288 192 l 1,33,-1
 352 192 l 1,34,-1
 352 128 l 1,35,-1
 288 128 l 1,32,-1
EndSplineSet
EndChar

StartChar: percent
Encoding: 37 37 38
Width: 384
GlyphClass: 2
Flags: W
LayerCount: 2
Fore
SplineSet
96 256 m 1,0,-1
 96 320 l 1,1,-1
 160 320 l 1,2,-1
 160 256 l 1,3,-1
 96 256 l 1,0,-1
288 256 m 1,4,-1
 288 320 l 1,5,-1
 352 320 l 1,6,-1
 352 256 l 1,7,-1
 288 256 l 1,4,-1
224 192 m 1,8,-1
 224 256 l 1,9,-1
 288 256 l 1,10,-1
 288 192 l 1,11,-1
 224 192 l 1,8,-1
160 128 m 1,12,-1
 160 192 l 1,13,-1
 224 192 l 1,14,-1
 224 128 l 1,15,-1
 160 128 l 1,12,-1
96 64 m 1,16,-1
 96 128 l 1,17,-1
 160 128 l 1,18,-1
 160 64 l 1,19,-1
 96 64 l 1,16,-1
32 0 m 1,20,-1
 32 64 l 1,21,-1
 96 64 l 1,22,-1
 96 0 l 1,23,-1
 32 0 l 1,20,-1
224 0 m 1,24,-1
 224 64 l 1,25,-1
 288 64 l 1,26,-1
 288 0 l 1,27,-1
 224 0 l 1,24,-1
EndSplineSet
EndChar

StartChar: ampersand
Encoding: 38 38 39
Width: 384
GlyphClass: 2
Flags: W
LayerCount: 2
Fore
SplineSet
64 320 m 1,0,-1
 64 384 l 1,1,-1
 192 384 l 1,2,-1
 192 320 l 1,3,-1
 64 320 l 1,0,-1
0 256 m 1,4,-1
 0 320 l 1,5,-1
 64 320 l 1,6,-1
 64 256 l 1,7,-1
 0 256 l 1,4,-1
192 256 m 1,8,-1
 192 320 l 1,9,-1
 256 320 l 1,10,-1
 256 256 l 1,11,-1
 192 256 l 1,8,-1
64 192 m 1,12,-1
 64 256 l 1,13,-1
 192 256 l 1,14,-1
 192 192 l 1,15,-1
 64 192 l 1,12,-1
320 192 m 1,16,-1
 320 256 l 1,17,-1
 384 256 l 1,18,-1
 384 192 l 1,19,-1
 320 192 l 1,16,-1
0 64 m 1,20,-1
 0 192 l 1,21,-1
 64 192 l 1,22,-1
 64 64 l 1,23,-1
 0 64 l 1,20,-1
192 64 m 1,24,-1
 192 192 l 1,25,-1
 320 192 l 1,26,-1
 320 128 l 1,27,-1
 256 128 l 1,28,-1
 256 64 l 1,29,-1
 192 64 l 1,24,-1
64 0 m 1,30,-1
 64 64 l 1,31,-1
 192 64 l 1,32,-1
 192 0 l 1,33,-1
 64 0 l 1,30,-1
256 0 m 1,34,-1
 256 64 l 1,35,-1
 384 64 l 1,36,-1
 384 0 l 1,37,-1
 256 0 l 1,34,-1
EndSplineSet
EndChar

StartChar: quotesingle
Encoding: 39 39 40
Width: 384
GlyphClass: 2
Flags: W
LayerCount: 2
Fore
SplineSet
160 256 m 1,0,-1
 160 384 l 1,1,-1
 224 384 l 1,2,-1
 224 256 l 1,3,-1
 160 256 l 1,0,-1
EndSplineSet
EndChar

StartChar: parenleft
Encoding: 40 40 41
Width: 384
GlyphClass: 2
Flags: W
LayerCount: 2
Fore
SplineSet
192 320 m 1,0,-1
 192 384 l 1,1,-1
 256 384 l 1,2,-1
 256 320 l 1,3,-1
 192 320 l 1,0,-1
128 64 m 1,4,-1
 128 320 l 1,5,-1
 192 320 l 1,6,-1
 192 64 l 1,7,-1
 128 64 l 1,4,-1
192 0 m 1,8,-1
 192 64 l 1,9,-1
 256 64 l 1,10,-1
 256 0 l 1,11,-1
 192 0 l 1,8,-1
EndSplineSet
EndChar

StartChar: parenright
Encoding: 41 41 42
Width: 384
GlyphClass: 2
Flags: W
LayerCount: 2
Fore
SplineSet
128 320 m 1,0,-1
 128 384 l 1,1,-1
 192 384 l 1,2,-1
 192 320 l 1,3,-1
 128 320 l 1,0,-1
192 64 m 1,4,-1
 192 320 l 1,5,-1
 256 320 l 1,6,-1
 256 64 l 1,7,-1
 192 64 l 1,4,-1
128 0 m 1,8,-1
 128 64 l 1,9,-1
 192 64 l 1,10,-1
 192 0 l 1,11,-1
 128 0 l 1,8,-1
EndSplineSet
EndChar

StartChar: asterisk
Encoding: 42 42 43
Width: 384
GlyphClass: 2
Flags: W
LayerCount: 2
Fore
SplineSet
96 64 m 1,0,-1
 96 192 l 1,1,-1
 32 192 l 1,2,-1
 32 256 l 1,3,-1
 160 256 l 1,4,-1
 160 320 l 1,5,-1
 224 320 l 1,6,-1
 224 256 l 1,7,-1
 352 256 l 1,8,-1
 352 192 l 1,9,-1
 288 192 l 1,10,-1
 288 64 l 1,11,-1
 224 64 l 1,12,-1
 224 128 l 1,13,-1
 160 128 l 1,14,-1
 160 64 l 1,15,-1
 96 64 l 1,0,-1
EndSplineSet
EndChar

StartChar: plus
Encoding: 43 43 44
Width: 384
GlyphClass: 2
Flags: W
LayerCount: 2
Fore
SplineSet
160 0 m 1,0,-1
 160 128 l 1,1,-1
 32 128 l 1,2,-1
 32 192 l 1,3,-1
 160 192 l 1,4,-1
 160 320 l 1,5,-1
 224 320 l 1,6,-1
 224 192 l 1,7,-1
 352 192 l 1,8,-1
 352 128 l 1,9,-1
 224 128 l 1,10,-1
 224 0 l 1,11,-1
 160 0 l 1,0,-1
EndSplineSet
EndChar

StartChar: comma
Encoding: 44 44 45
Width: 384
GlyphClass: 2
Flags: W
LayerCount: 2
Fore
SplineSet
0 -64 m 1,0,-1
 64 0 l 1,1,-1
 64 64 l 1,2,-1
 128 64 l 1,3,-1
 128 0 l 1,4,-1
 64 -64 l 1,5,-1
 0 -64 l 1,0,-1
EndSplineSet
EndChar

StartChar: hyphen
Encoding: 45 45 46
Width: 384
GlyphClass: 2
Flags: W
LayerCount: 2
Fore
SplineSet
64 128 m 1,0,-1
 64 192 l 1,1,-1
 320 192 l 1,2,-1
 320 128 l 1,3,-1
 64 128 l 1,0,-1
EndSplineSet
EndChar

StartChar: period
Encoding: 46 46 47
Width: 384
GlyphClass: 2
Flags: W
LayerCount: 2
Fore
SplineSet
64 0 m 1,0,-1
 64 64 l 1,1,-1
 128 64 l 1,2,-1
 128 0 l 1,3,-1
 64 0 l 1,0,-1
EndSplineSet
EndChar

StartChar: slash
Encoding: 47 47 48
Width: 384
GlyphClass: 2
Flags: W
LayerCount: 2
Fore
SplineSet
256 320 m 1,0,-1
 256 384 l 1,1,-1
 320 384 l 1,2,-1
 320 320 l 1,3,-1
 256 320 l 1,0,-1
192 192 m 1,4,-1
 192 320 l 1,5,-1
 256 320 l 1,6,-1
 256 192 l 1,7,-1
 192 192 l 1,4,-1
128 64 m 1,8,-1
 128 192 l 1,9,-1
 192 192 l 1,10,-1
 192 64 l 1,11,-1
 128 64 l 1,8,-1
64 0 m 1,12,-1
 64 64 l 1,13,-1
 128 64 l 1,14,-1
 128 0 l 1,15,-1
 64 0 l 1,12,-1
EndSplineSet
EndChar

StartChar: zero
Encoding: 48 48 49
Width: 384
GlyphClass: 2
Flags: W
LayerCount: 2
Fore
SplineSet
128 256 m 1,0,-1
 128 320 l 1,1,-1
 256 320 l 1,2,-1
 256 256 l 1,3,-1
 128 256 l 1,0,-1
64 64 m 1,4,-1
 64 256 l 1,5,-1
 128 256 l 1,6,-1
 128 64 l 1,7,-1
 64 64 l 1,4,-1
256 64 m 1,8,-1
 256 256 l 1,9,-1
 320 256 l 1,10,-1
 320 64 l 1,11,-1
 256 64 l 1,8,-1
128 0 m 1,12,-1
 128 64 l 1,13,-1
 256 64 l 1,14,-1
 256 0 l 1,15,-1
 128 0 l 1,12,-1
EndSplineSet
EndChar

StartChar: one
Encoding: 49 49 50
Width: 384
GlyphClass: 2
Flags: W
LayerCount: 2
Fore
SplineSet
192 256 m 1024,0,-1
192 320 m 1024,1,-1
64 0 m 1,2,-1
 64 64 l 1,3,-1
 192 64 l 1,4,-1
 192 256 l 1,5,-1
 128 256 l 1,6,-1
 128 320 l 1,7,-1
 192 320 l 1,8,-1
 192 320 l 1,9,-1
 256 320 l 1,10,-1
 256 64 l 1,11,-1
 320 64 l 1,12,-1
 320 0 l 1,13,-1
 64 0 l 1,2,-1
EndSplineSet
EndChar

StartChar: two
Encoding: 50 50 51
Width: 384
GlyphClass: 2
Flags: W
LayerCount: 2
Fore
SplineSet
128 256 m 1,0,-1
 128 320 l 1,1,-1
 256 320 l 1,2,-1
 256 256 l 1,3,-1
 128 256 l 1,0,-1
64 192 m 1,4,-1
 64 256 l 1,5,-1
 128 256 l 1,6,-1
 128 192 l 1,7,-1
 64 192 l 1,4,-1
256 192 m 1,8,-1
 256 256 l 1,9,-1
 320 256 l 1,10,-1
 320 192 l 1,11,-1
 256 192 l 1,8,-1
192 128 m 1,12,-1
 192 192 l 1,13,-1
 256 192 l 1,14,-1
 256 128 l 1,15,-1
 192 128 l 1,12,-1
64 0 m 1,16,-1
 64 64 l 1,17,-1
 128 64 l 1,18,-1
 128 128 l 1,19,-1
 192 128 l 1,20,-1
 192 64 l 1,21,-1
 320 64 l 1,22,-1
 320 0 l 1,23,-1
 64 0 l 1,16,-1
EndSplineSet
EndChar

StartChar: three
Encoding: 51 51 52
Width: 384
GlyphClass: 2
Flags: W
LayerCount: 2
Fore
SplineSet
64 256 m 1,0,-1
 64 320 l 1,1,-1
 256 320 l 1,2,-1
 256 256 l 1,3,-1
 64 256 l 1,0,-1
256 192 m 1,4,-1
 256 256 l 1,5,-1
 320 256 l 1,6,-1
 320 192 l 1,7,-1
 256 192 l 1,4,-1
128 128 m 1,8,-1
 128 192 l 1,9,-1
 256 192 l 1,10,-1
 256 128 l 1,11,-1
 128 128 l 1,8,-1
256 64 m 1,12,-1
 256 128 l 1,13,-1
 320 128 l 1,14,-1
 320 64 l 1,15,-1
 256 64 l 1,12,-1
64 0 m 1,16,-1
 64 64 l 1,17,-1
 256 64 l 1,18,-1
 256 0 l 1,19,-1
 64 0 l 1,16,-1
EndSplineSet
EndChar

StartChar: four
Encoding: 52 52 53
Width: 384
GlyphClass: 2
Flags: W
LayerCount: 2
Fore
SplineSet
192 0 m 1,0,-1
 192 64 l 1,1,-1
 64 64 l 1,2,-1
 64 320 l 1,3,-1
 128 320 l 1,4,-1
 128 128 l 1,5,-1
 192 128 l 1,6,-1
 192 192 l 1,7,-1
 256 192 l 1,8,-1
 256 128 l 1,9,-1
 320 128 l 1,10,-1
 320 64 l 1,11,-1
 256 64 l 1,12,-1
 256 0 l 1,13,-1
 192 0 l 1,0,-1
EndSplineSet
EndChar

StartChar: five
Encoding: 53 53 54
Width: 384
GlyphClass: 2
Flags: W
LayerCount: 2
Fore
SplineSet
64 192 m 1,0,-1
 64 320 l 1,1,-1
 256 320 l 1,2,-1
 256 256 l 1,3,-1
 128 256 l 1,4,-1
 128 192 l 1,5,-1
 64 192 l 1,0,-1
128 128 m 1,6,-1
 128 192 l 1,7,-1
 256 192 l 1,8,-1
 256 128 l 1,9,-1
 128 128 l 1,6,-1
256 64 m 1,10,-1
 256 128 l 1,11,-1
 320 128 l 1,12,-1
 320 64 l 1,13,-1
 256 64 l 1,10,-1
64 0 m 1,14,-1
 64 64 l 1,15,-1
 256 64 l 1,16,-1
 256 0 l 1,17,-1
 64 0 l 1,14,-1
EndSplineSet
EndChar

StartChar: six
Encoding: 54 54 55
Width: 384
GlyphClass: 2
Flags: W
LayerCount: 2
Fore
SplineSet
128 256 m 1,0,-1
 128 320 l 1,1,-1
 256 320 l 1,2,-1
 256 256 l 1,3,-1
 128 256 l 1,0,-1
64 64 m 1,4,-1
 64 256 l 1,5,-1
 128 256 l 1,6,-1
 128 192 l 1,7,-1
 256 192 l 1,8,-1
 256 128 l 1,9,-1
 128 128 l 1,10,-1
 128 64 l 1,11,-1
 64 64 l 1,4,-1
256 64 m 1,12,-1
 256 128 l 1,13,-1
 320 128 l 1,14,-1
 320 64 l 1,15,-1
 256 64 l 1,12,-1
128 0 m 1,16,-1
 128 64 l 1,17,-1
 256 64 l 1,18,-1
 256 0 l 1,19,-1
 128 0 l 1,16,-1
EndSplineSet
EndChar

StartChar: seven
Encoding: 55 55 56
Width: 384
GlyphClass: 2
Flags: W
LayerCount: 2
Fore
SplineSet
192 128 m 1,0,-1
 192 192 l 1,1,-1
 256 192 l 1,2,-1
 256 128 l 1,3,-1
 192 128 l 1,0,-1
128 64 m 1024,4,-1
128 64 m 1,5,-1
 128 128 l 1,6,-1
 192 128 l 1,7,-1
 192 64 l 1,8,-1
 128 64 l 1,5,-1
256 256 m 1,9,-1
 192 256 l 1,10,-1
 64 256 l 1,11,-1
 64 320 l 1,12,-1
 320 320 l 1,13,-1
 320 256 l 1,14,-1
 320 192 l 1,15,-1
 256 192 l 1,16,-1
 256 256 l 1,9,-1
64 0 m 1,17,-1
 64 64 l 1,18,-1
 128 64 l 1,19,-1
 128 0 l 1,20,-1
 64 0 l 1,17,-1
EndSplineSet
EndChar

StartChar: eight
Encoding: 56 56 57
Width: 384
GlyphClass: 2
Flags: W
LayerCount: 2
Fore
SplineSet
128 256 m 1,0,-1
 128 320 l 1,1,-1
 256 320 l 1,2,-1
 256 256 l 1,3,-1
 128 256 l 1,0,-1
64 192 m 1,4,-1
 64 256 l 1,5,-1
 128 256 l 1,6,-1
 128 192 l 1,7,-1
 64 192 l 1,4,-1
256 192 m 1,8,-1
 256 256 l 1,9,-1
 320 256 l 1,10,-1
 320 192 l 1,11,-1
 256 192 l 1,8,-1
128 128 m 1,12,-1
 128 192 l 1,13,-1
 256 192 l 1,14,-1
 256 128 l 1,15,-1
 128 128 l 1,12,-1
64 64 m 1,16,-1
 64 128 l 1,17,-1
 128 128 l 1,18,-1
 128 64 l 1,19,-1
 64 64 l 1,16,-1
256 64 m 1,20,-1
 256 128 l 1,21,-1
 320 128 l 1,22,-1
 320 64 l 1,23,-1
 256 64 l 1,20,-1
128 0 m 1,24,-1
 128 64 l 1,25,-1
 256 64 l 1,26,-1
 256 0 l 1,27,-1
 128 0 l 1,24,-1
EndSplineSet
EndChar

StartChar: nine
Encoding: 57 57 58
Width: 384
GlyphClass: 2
Flags: W
LayerCount: 2
Fore
SplineSet
128 256 m 1,0,-1
 128 320 l 1,1,-1
 256 320 l 1,2,-1
 256 256 l 1,3,-1
 128 256 l 1,0,-1
64 192 m 1,4,-1
 64 256 l 1,5,-1
 128 256 l 1,6,-1
 128 192 l 1,7,-1
 256 192 l 1,8,-1
 256 256 l 1,9,-1
 320 256 l 1,10,-1
 320 64 l 1,11,-1
 256 64 l 1,12,-1
 256 128 l 1,13,-1
 128 128 l 1,14,-1
 128 192 l 1,15,-1
 64 192 l 1,4,-1
128 0 m 1,16,-1
 128 64 l 1,17,-1
 256 64 l 1,18,-1
 256 0 l 1,19,-1
 128 0 l 1,16,-1
EndSplineSet
EndChar

StartChar: colon
Encoding: 58 58 59
Width: 128
GlyphClass: 2
Flags: W
LayerCount: 2
Fore
SplineSet
0 192 m 1,0,-1
 0 256 l 1,1,-1
 64 256 l 1,2,-1
 64 192 l 1,3,-1
 0 192 l 1,0,-1
0 64 m 1,4,-1
 0 128 l 1,5,-1
 64 128 l 1,6,-1
 64 64 l 1,7,-1
 0 64 l 1,4,-1
EndSplineSet
EndChar

StartChar: semicolon
Encoding: 59 59 60
Width: 384
GlyphClass: 2
Flags: W
LayerCount: 2
Fore
SplineSet
160 128 m 1,0,-1
 160 192 l 1,1,-1
 224 192 l 1,2,-1
 224 128 l 1,3,-1
 160 128 l 1,0,-1
160 -64 m 1,4,-1
 160 64 l 1,5,-1
 224 64 l 1,6,-1
 224 0 l 1,7,-1
 160 -64 l 1,4,-1
EndSplineSet
EndChar

StartChar: less
Encoding: 60 60 61
Width: 384
GlyphClass: 2
Flags: W
LayerCount: 2
Fore
SplineSet
224 256 m 1,0,-1
 224 320 l 1,1,-1
 288 320 l 1,2,-1
 288 256 l 1,3,-1
 224 256 l 1,0,-1
160 192 m 1,4,-1
 160 256 l 1,5,-1
 224 256 l 1,6,-1
 224 192 l 1,7,-1
 160 192 l 1,4,-1
96 128 m 1,8,-1
 96 192 l 1,9,-1
 160 192 l 1,10,-1
 160 128 l 1,11,-1
 96 128 l 1,8,-1
160 64 m 1,12,-1
 160 128 l 1,13,-1
 224 128 l 1,14,-1
 224 64 l 1,15,-1
 160 64 l 1,12,-1
224 0 m 1,16,-1
 224 64 l 1,17,-1
 288 64 l 1,18,-1
 288 0 l 1,19,-1
 224 0 l 1,16,-1
EndSplineSet
EndChar

StartChar: equal
Encoding: 61 61 62
Width: 384
GlyphClass: 2
Flags: W
LayerCount: 2
Fore
SplineSet
96 192 m 1,0,-1
 96 256 l 1,1,-1
 288 256 l 1,2,-1
 288 192 l 1,3,-1
 96 192 l 1,0,-1
96 64 m 1,4,-1
 96 128 l 1,5,-1
 288 128 l 1,6,-1
 288 64 l 1,7,-1
 96 64 l 1,4,-1
EndSplineSet
EndChar

StartChar: greater
Encoding: 62 62 63
Width: 384
GlyphClass: 2
Flags: W
LayerCount: 2
Fore
SplineSet
96 256 m 1,0,-1
 96 320 l 1,1,-1
 160 320 l 1,2,-1
 160 256 l 1,3,-1
 96 256 l 1,0,-1
160 192 m 1,4,-1
 160 256 l 1,5,-1
 224 256 l 1,6,-1
 224 192 l 1,7,-1
 160 192 l 1,4,-1
224 128 m 1,8,-1
 224 192 l 1,9,-1
 288 192 l 1,10,-1
 288 128 l 1,11,-1
 224 128 l 1,8,-1
160 64 m 1,12,-1
 160 128 l 1,13,-1
 224 128 l 1,14,-1
 224 64 l 1,15,-1
 160 64 l 1,12,-1
96 0 m 1,16,-1
 96 64 l 1,17,-1
 160 64 l 1,18,-1
 160 0 l 1,19,-1
 96 0 l 1,16,-1
EndSplineSet
EndChar

StartChar: question
Encoding: 63 63 64
Width: 384
GlyphClass: 2
Flags: W
LayerCount: 2
Fore
SplineSet
128 320 m 1,0,-1
 128 384 l 1,1,-1
 256 384 l 1,2,-1
 256 320 l 1,3,-1
 128 320 l 1,0,-1
64 256 m 1,4,-1
 64 320 l 1,5,-1
 128 320 l 1,6,-1
 128 256 l 1,7,-1
 64 256 l 1,4,-1
256 256 m 1,8,-1
 256 320 l 1,9,-1
 320 320 l 1,10,-1
 320 256 l 1,11,-1
 256 256 l 1,8,-1
192 192 m 1,12,-1
 192 256 l 1,13,-1
 256 256 l 1,14,-1
 256 192 l 1,15,-1
 192 192 l 1,12,-1
128 128 m 1,16,-1
 128 192 l 1,17,-1
 192 192 l 1,18,-1
 192 128 l 1,19,-1
 128 128 l 1,16,-1
128 0 m 1,20,-1
 128 64 l 1,21,-1
 192 64 l 1,22,-1
 192 0 l 1,23,-1
 128 0 l 1,20,-1
EndSplineSet
EndChar

StartChar: at
Encoding: 64 64 65
Width: 384
GlyphClass: 2
Flags: W
LayerCount: 2
Fore
SplineSet
96 256 m 1,0,-1
 96 320 l 1,1,-1
 288 320 l 1,2,-1
 288 256 l 1,3,-1
 96 256 l 1,0,-1
32 192 m 1,4,-1
 32 256 l 1,5,-1
 96 256 l 1,6,-1
 96 192 l 1,7,-1
 32 192 l 1,4,-1
288 192 m 1,8,-1
 288 256 l 1,9,-1
 352 256 l 1,10,-1
 352 192 l 1,11,-1
 288 192 l 1,8,-1
-32 0 m 1,12,-1
 -32 192 l 1,13,-1
 32 192 l 1,14,-1
 32 0 l 1,15,-1
 -32 0 l 1,12,-1
160 128 m 1,16,-1
 160 192 l 1,17,-1
 224 192 l 1,18,-1
 224 128 l 1,19,-1
 160 128 l 1,16,-1
352 64 m 1,20,-1
 352 192 l 1,21,-1
 416 192 l 1,22,-1
 416 64 l 1,23,-1
 352 64 l 1,20,-1
96 64 m 1,24,-1
 96 128 l 1,25,-1
 160 128 l 1,26,-1
 160 64 l 1,27,-1
 96 64 l 1,24,-1
224 64 m 1,28,-1
 224 128 l 1,29,-1
 288 128 l 1,30,-1
 288 64 l 1,31,-1
 224 64 l 1,28,-1
160 0 m 1,32,-1
 160 64 l 1,33,-1
 224 64 l 1,34,-1
 224 0 l 1,35,-1
 160 0 l 1,32,-1
288 0 m 1,36,-1
 288 64 l 1,37,-1
 352 64 l 1,38,-1
 352 0 l 1,39,-1
 288 0 l 1,36,-1
32 -64 m 1,40,-1
 32 0 l 1,41,-1
 96 0 l 1,42,-1
 96 -64 l 1,43,-1
 32 -64 l 1,40,-1
96 -128 m 1,44,-1
 96 -64 l 1,45,-1
 352 -64 l 1,46,-1
 352 -128 l 1,47,-1
 96 -128 l 1,44,-1
EndSplineSet
EndChar

StartChar: A
Encoding: 65 65 66
Width: 384
GlyphClass: 2
Flags: W
LayerCount: 2
Fore
SplineSet
128 256 m 1,0,-1
 128 320 l 1,1,-1
 256 320 l 1,2,-1
 256 256 l 1,3,-1
 128 256 l 1,0,-1
64 0 m 1,4,-1
 64 256 l 1,5,-1
 128 256 l 1,6,-1
 128 128 l 1,7,-1
 256 128 l 1,8,-1
 256 256 l 1,9,-1
 320 256 l 1,10,-1
 320 0 l 1,11,-1
 256 0 l 1,12,-1
 256 64 l 1,13,-1
 128 64 l 1,14,-1
 128 0 l 1,15,-1
 64 0 l 1,4,-1
EndSplineSet
EndChar

StartChar: B
Encoding: 66 66 67
Width: 384
GlyphClass: 2
Flags: W
LayerCount: 2
Fore
SplineSet
256 64 m 1,0,-1
 256 0 l 1,1,-1
 64 0 l 1,2,-1
 64 320 l 1,3,-1
 256 320 l 1,4,-1
 256 256 l 1,5,-1
 128 256 l 1,6,-1
 128 192 l 1,7,-1
 256 192 l 1,8,-1
 256 128 l 1,9,-1
 128 128 l 1,10,-1
 128 64 l 1,11,-1
 256 64 l 1,0,-1
256 192 m 1,12,-1
 256 256 l 1,13,-1
 320 256 l 1,14,-1
 320 192 l 1,15,-1
 256 192 l 1,12,-1
256 64 m 1,16,-1
 256 128 l 1,17,-1
 320 128 l 1,18,-1
 320 64 l 1,19,-1
 256 64 l 1,16,-1
EndSplineSet
EndChar

StartChar: C
Encoding: 67 67 68
Width: 384
GlyphClass: 2
Flags: W
LayerCount: 2
Fore
SplineSet
128 256 m 1,0,-1
 128 320 l 1,1,-1
 320 320 l 1,2,-1
 320 256 l 1,3,-1
 128 256 l 1,0,-1
64 64 m 1,4,-1
 64 256 l 1,5,-1
 128 256 l 1,6,-1
 128 64 l 1,7,-1
 64 64 l 1,4,-1
128 64 m 1,8,-1
 320 64 l 1,9,-1
 320 0 l 1,10,-1
 128 0 l 1,11,-1
 128 64 l 1,8,-1
EndSplineSet
EndChar

StartChar: D
Encoding: 68 68 69
Width: 384
GlyphClass: 2
Flags: W
LayerCount: 2
Fore
SplineSet
256 64 m 1,0,-1
 256 0 l 1,1,-1
 64 0 l 1,2,-1
 64 320 l 1,3,-1
 256 320 l 1,4,-1
 256 256 l 1,5,-1
 128 256 l 1,6,-1
 128 64 l 1,7,-1
 256 64 l 1,0,-1
256 64 m 1,8,-1
 256 256 l 1,9,-1
 320 256 l 1,10,-1
 320 64 l 1,11,-1
 256 64 l 1,8,-1
EndSplineSet
EndChar

StartChar: E
Encoding: 69 69 70
Width: 384
GlyphClass: 2
Flags: W
LayerCount: 2
Fore
SplineSet
64 0 m 1,0,-1
 64 320 l 1,1,-1
 320 320 l 1,2,-1
 320 256 l 1,3,-1
 128 256 l 1,4,-1
 128 192 l 1,5,-1
 256 192 l 1,6,-1
 256 128 l 1,7,-1
 128 128 l 1,8,-1
 128 64 l 1,9,-1
 320 64 l 1,10,-1
 320 0 l 1,11,-1
 64 0 l 1,0,-1
EndSplineSet
EndChar

StartChar: F
Encoding: 70 70 71
Width: 384
GlyphClass: 2
Flags: W
LayerCount: 2
Fore
SplineSet
64 0 m 1,0,-1
 64 320 l 1,1,-1
 320 320 l 1,2,-1
 320 256 l 1,3,-1
 128 256 l 1,4,-1
 128 192 l 1,5,-1
 256 192 l 1,6,-1
 256 128 l 1,7,-1
 128 128 l 1,8,-1
 128 0 l 1,9,-1
 64 0 l 1,0,-1
EndSplineSet
EndChar

StartChar: G
Encoding: 71 71 72
Width: 384
GlyphClass: 2
Flags: W
LayerCount: 2
Fore
SplineSet
128 256 m 1,0,-1
 128 320 l 1,1,-1
 320 320 l 1,2,-1
 320 256 l 1,3,-1
 128 256 l 1,0,-1
128 0 m 1,4,-1
 128 64 l 1,5,-1
 64 64 l 1,6,-1
 64 256 l 1,7,-1
 128 256 l 1,8,-1
 128 64 l 1,9,-1
 256 64 l 1,10,-1
 256 128 l 1,11,-1
 192 128 l 1,12,-1
 192 192 l 1,13,-1
 320 192 l 1,14,-1
 320 0 l 1,15,-1
 128 0 l 1,4,-1
EndSplineSet
EndChar

StartChar: H
Encoding: 72 72 73
Width: 384
GlyphClass: 2
Flags: W
LayerCount: 2
Fore
SplineSet
64 0 m 1,0,-1
 64 320 l 1,1,-1
 128 320 l 1,2,-1
 128 192 l 1,3,-1
 256 192 l 1,4,-1
 256 320 l 1,5,-1
 320 320 l 1,6,-1
 320 0 l 1,7,-1
 256 0 l 1,8,-1
 256 128 l 1,9,-1
 128 128 l 1,10,-1
 128 0 l 1,11,-1
 64 0 l 1,0,-1
EndSplineSet
EndChar

StartChar: I
Encoding: 73 73 74
Width: 384
GlyphClass: 2
Flags: W
LayerCount: 2
Fore
SplineSet
64 0 m 1,0,-1
 64 64 l 1,1,-1
 160 64 l 1,2,-1
 160 256 l 1,3,-1
 64 256 l 1,4,-1
 64 320 l 1,5,-1
 320 320 l 1,6,-1
 320 256 l 1,7,-1
 224 256 l 1,8,-1
 224 64 l 1,9,-1
 320 64 l 1,10,-1
 320 0 l 1,11,-1
 64 0 l 1,0,-1
EndSplineSet
EndChar

StartChar: J
Encoding: 74 74 75
Width: 384
GlyphClass: 2
Flags: W
LayerCount: 2
Fore
SplineSet
192 64 m 1,0,-1
 192 256 l 1,1,-1
 64 256 l 1,2,-1
 64 320 l 1,3,-1
 320 320 l 1,4,-1
 320 256 l 1,5,-1
 256 256 l 1,6,-1
 256 64 l 1,7,-1
 192 64 l 1,0,-1
64 64 m 1,8,-1
 64 128 l 1,9,-1
 128 128 l 1,10,-1
 128 64 l 1,11,-1
 64 64 l 1,8,-1
128 0 m 1,12,-1
 128 64 l 1,13,-1
 192 64 l 1,14,-1
 192 0 l 1,15,-1
 128 0 l 1,12,-1
EndSplineSet
EndChar

StartChar: K
Encoding: 75 75 76
Width: 384
GlyphClass: 2
Flags: W
LayerCount: 2
Fore
SplineSet
192 192 m 1,0,-1
 192 128 l 1,1,-1
 128 128 l 1,2,-1
 128 0 l 1,3,-1
 64 0 l 1,4,-1
 64 320 l 1,5,-1
 128 320 l 1,6,-1
 128 192 l 1,7,-1
 192 192 l 1,0,-1
256 256 m 1,8,-1
 256 320 l 1,9,-1
 320 320 l 1,10,-1
 320 256 l 1,11,-1
 256 256 l 1,8,-1
192 192 m 1,12,-1
 192 256 l 1,13,-1
 256 256 l 1,14,-1
 256 192 l 1,15,-1
 192 192 l 1,12,-1
192 64 m 1,16,-1
 192 128 l 1,17,-1
 256 128 l 1,18,-1
 256 64 l 1,19,-1
 192 64 l 1,16,-1
256 0 m 1,20,-1
 256 64 l 1,21,-1
 320 64 l 1,22,-1
 320 0 l 1,23,-1
 256 0 l 1,20,-1
EndSplineSet
EndChar

StartChar: L
Encoding: 76 76 77
Width: 384
GlyphClass: 2
Flags: W
LayerCount: 2
Fore
SplineSet
64 0 m 1,0,-1
 64 320 l 1,1,-1
 128 320 l 1,2,-1
 128 64 l 1,3,-1
 320 64 l 1,4,-1
 320 0 l 1,5,-1
 64 0 l 1,0,-1
EndSplineSet
EndChar

StartChar: M
Encoding: 77 77 78
Width: 384
GlyphClass: 2
Flags: W
LayerCount: 2
Fore
SplineSet
32 0 m 1,0,-1
 32 320 l 1,1,-1
 160 320 l 1,2,-1
 160 256 l 1,3,-1
 96 256 l 1,4,-1
 96 0 l 1,5,-1
 32 0 l 1,0,-1
288 0 m 1,6,-1
 288 256 l 1,7,-1
 224 256 l 1,8,-1
 224 320 l 1,9,-1
 352 320 l 1,10,-1
 352 0 l 1,11,-1
 288 0 l 1,6,-1
160 128 m 1,12,-1
 160 256 l 1,13,-1
 224 256 l 1,14,-1
 224 128 l 1,15,-1
 160 128 l 1,12,-1
EndSplineSet
EndChar

StartChar: N
Encoding: 78 78 79
Width: 384
GlyphClass: 2
Flags: W
LayerCount: 2
Fore
SplineSet
64 0 m 1,0,-1
 64 320 l 1,1,-1
 128 320 l 1,2,-1
 128 256 l 1,3,-1
 192 256 l 1,4,-1
 192 192 l 1,5,-1
 128 192 l 1,6,-1
 128 0 l 1,7,-1
 64 0 l 1,0,-1
256 0 m 1,8,-1
 256 128 l 1,9,-1
 192 128 l 1,10,-1
 192 192 l 1,11,-1
 256 192 l 1,12,-1
 256 320 l 1,13,-1
 320 320 l 1,14,-1
 320 0 l 1,15,-1
 256 0 l 1,8,-1
EndSplineSet
EndChar

StartChar: O
Encoding: 79 79 80
Width: 384
GlyphClass: 2
Flags: W
LayerCount: 2
Fore
SplineSet
128 256 m 1,0,-1
 128 320 l 1,1,-1
 256 320 l 1,2,-1
 256 256 l 1,3,-1
 128 256 l 1,0,-1
64 64 m 1,4,-1
 64 256 l 1,5,-1
 128 256 l 1,6,-1
 128 64 l 1,7,-1
 64 64 l 1,4,-1
256 64 m 1,8,-1
 256 256 l 1,9,-1
 320 256 l 1,10,-1
 320 64 l 1,11,-1
 256 64 l 1,8,-1
128 0 m 1,12,-1
 128 64 l 1,13,-1
 256 64 l 1,14,-1
 256 0 l 1,15,-1
 128 0 l 1,12,-1
EndSplineSet
EndChar

StartChar: P
Encoding: 80 80 81
Width: 384
GlyphClass: 2
Flags: W
LayerCount: 2
Fore
SplineSet
256 128 m 1,0,-1
 256 64 l 1,1,-1
 128 64 l 1,2,-1
 128 0 l 1,3,-1
 64 0 l 1,4,-1
 64 320 l 1,5,-1
 256 320 l 1,6,-1
 256 256 l 1,7,-1
 128 256 l 1,8,-1
 128 128 l 1,9,-1
 256 128 l 1,0,-1
256 128 m 1,10,-1
 256 256 l 1,11,-1
 320 256 l 1,12,-1
 320 128 l 1,13,-1
 256 128 l 1,10,-1
EndSplineSet
EndChar

StartChar: Q
Encoding: 81 81 82
Width: 384
GlyphClass: 2
Flags: W
LayerCount: 2
Fore
SplineSet
128 256 m 1,0,-1
 128 320 l 1,1,-1
 256 320 l 1,2,-1
 256 256 l 1,3,-1
 128 256 l 1,0,-1
64 64 m 1,4,-1
 64 256 l 1,5,-1
 128 256 l 1,6,-1
 128 64 l 1,7,-1
 192 64 l 1,8,-1
 192 128 l 1,9,-1
 256 128 l 1,10,-1
 256 256 l 1,11,-1
 320 256 l 1,12,-1
 320 0 l 1,13,-1
 128 0 l 1,14,-1
 128 64 l 1,15,-1
 64 64 l 1,4,-1
EndSplineSet
EndChar

StartChar: R
Encoding: 82 82 83
Width: 384
GlyphClass: 2
Flags: W
LayerCount: 2
Fore
SplineSet
256 128 m 1,0,-1
 256 64 l 1,1,-1
 128 64 l 1,2,-1
 128 0 l 1,3,-1
 64 0 l 1,4,-1
 64 320 l 1,5,-1
 256 320 l 1,6,-1
 256 256 l 1,7,-1
 128 256 l 1,8,-1
 128 128 l 1,9,-1
 256 128 l 1,0,-1
256 128 m 1,10,-1
 256 256 l 1,11,-1
 320 256 l 1,12,-1
 320 128 l 1,13,-1
 256 128 l 1,10,-1
256 0 m 1,14,-1
 256 64 l 1,15,-1
 320 64 l 1,16,-1
 320 0 l 1,17,-1
 256 0 l 1,14,-1
EndSplineSet
EndChar

StartChar: S
Encoding: 83 83 84
Width: 384
GlyphClass: 2
Flags: W
LayerCount: 2
Fore
SplineSet
128 256 m 1,0,-1
 128 320 l 1,1,-1
 320 320 l 1,2,-1
 320 256 l 1,3,-1
 128 256 l 1,0,-1
64 192 m 1,4,-1
 64 256 l 1,5,-1
 128 256 l 1,6,-1
 128 192 l 1,7,-1
 64 192 l 1,4,-1
128 128 m 1,8,-1
 128 192 l 1,9,-1
 256 192 l 1,10,-1
 256 128 l 1,11,-1
 128 128 l 1,8,-1
256 64 m 1,12,-1
 256 128 l 1,13,-1
 320 128 l 1,14,-1
 320 64 l 1,15,-1
 256 64 l 1,12,-1
64 0 m 1,16,-1
 64 64 l 1,17,-1
 256 64 l 1,18,-1
 256 0 l 1,19,-1
 64 0 l 1,16,-1
EndSplineSet
EndChar

StartChar: T
Encoding: 84 84 85
Width: 384
GlyphClass: 2
Flags: W
LayerCount: 2
Fore
SplineSet
160 0 m 1,0,-1
 160 256 l 1,1,-1
 64 256 l 1,2,-1
 64 320 l 1,3,-1
 320 320 l 1,4,-1
 320 256 l 1,5,-1
 224 256 l 1,6,-1
 224 0 l 1,7,-1
 160 0 l 1,0,-1
EndSplineSet
EndChar

StartChar: U
Encoding: 85 85 86
Width: 384
GlyphClass: 2
Flags: W
LayerCount: 2
Fore
SplineSet
64 64 m 1,0,-1
 64 320 l 1,1,-1
 128 320 l 1,2,-1
 128 64 l 1,3,-1
 64 64 l 1,0,-1
256 64 m 1,4,-1
 256 320 l 1,5,-1
 320 320 l 1,6,-1
 320 64 l 1,7,-1
 256 64 l 1,4,-1
128 0 m 1,8,-1
 128 64 l 1,9,-1
 256 64 l 1,10,-1
 256 0 l 1,11,-1
 128 0 l 1,8,-1
EndSplineSet
EndChar

StartChar: V
Encoding: 86 86 87
Width: 384
GlyphClass: 2
Flags: W
LayerCount: 2
Fore
SplineSet
32 192 m 1,0,-1
 32 320 l 1,1,-1
 96 320 l 1,2,-1
 96 192 l 1,3,-1
 32 192 l 1,0,-1
288 192 m 1,4,-1
 288 320 l 1,5,-1
 352 320 l 1,6,-1
 352 192 l 1,7,-1
 288 192 l 1,4,-1
96 64 m 1,8,-1
 96 192 l 1,9,-1
 160 192 l 1,10,-1
 160 64 l 1,11,-1
 96 64 l 1,8,-1
224 64 m 1,12,-1
 224 192 l 1,13,-1
 288 192 l 1,14,-1
 288 64 l 1,15,-1
 224 64 l 1,12,-1
160 0 m 1,16,-1
 160 64 l 1,17,-1
 224 64 l 1,18,-1
 224 0 l 1,19,-1
 160 0 l 1,16,-1
EndSplineSet
EndChar

StartChar: W
Encoding: 87 87 88
Width: 384
GlyphClass: 2
Flags: W
LayerCount: 2
Fore
SplineSet
96 0 m 1,0,-1
 96 64 l 1,1,-1
 32 64 l 1,2,-1
 32 320 l 1,3,-1
 96 320 l 1,4,-1
 96 64 l 1,5,-1
 160 64 l 1,6,-1
 160 192 l 1,7,-1
 224 192 l 1,8,-1
 224 64 l 1,9,-1
 288 64 l 1,10,-1
 288 0 l 1,11,-1
 96 0 l 1,0,-1
288 64 m 1,12,-1
 288 320 l 1,13,-1
 352 320 l 1,14,-1
 352 64 l 1,15,-1
 288 64 l 1,12,-1
EndSplineSet
EndChar

StartChar: X
Encoding: 88 88 89
Width: 384
GlyphClass: 2
Flags: W
LayerCount: 2
Fore
SplineSet
32 256 m 1,0,-1
 32 320 l 1,1,-1
 96 320 l 1,2,-1
 96 256 l 1,3,-1
 32 256 l 1,0,-1
288 256 m 1,4,-1
 288 320 l 1,5,-1
 352 320 l 1,6,-1
 352 256 l 1,7,-1
 288 256 l 1,4,-1
96 192 m 1,8,-1
 96 256 l 1,9,-1
 160 256 l 1,10,-1
 160 192 l 1,11,-1
 96 192 l 1,8,-1
224 192 m 1,12,-1
 224 256 l 1,13,-1
 288 256 l 1,14,-1
 288 192 l 1,15,-1
 224 192 l 1,12,-1
160 128 m 1,16,-1
 160 192 l 1,17,-1
 224 192 l 1,18,-1
 224 128 l 1,19,-1
 160 128 l 1,16,-1
96 64 m 1,20,-1
 96 128 l 1,21,-1
 160 128 l 1,22,-1
 160 64 l 1,23,-1
 96 64 l 1,20,-1
224 64 m 1,24,-1
 224 128 l 1,25,-1
 288 128 l 1,26,-1
 288 64 l 1,27,-1
 224 64 l 1,24,-1
32 0 m 1,28,-1
 32 64 l 1,29,-1
 96 64 l 1,30,-1
 96 0 l 1,31,-1
 32 0 l 1,28,-1
288 0 m 1,32,-1
 288 64 l 1,33,-1
 352 64 l 1,34,-1
 352 0 l 1,35,-1
 288 0 l 1,32,-1
EndSplineSet
EndChar

StartChar: Y
Encoding: 89 89 90
Width: 384
GlyphClass: 2
Flags: W
LayerCount: 2
Fore
SplineSet
32 256 m 1,0,-1
 32 320 l 1,1,-1
 96 320 l 1,2,-1
 96 256 l 1,3,-1
 32 256 l 1,0,-1
288 256 m 1,4,-1
 288 320 l 1,5,-1
 352 320 l 1,6,-1
 352 256 l 1,7,-1
 288 256 l 1,4,-1
96 192 m 1,8,-1
 96 256 l 1,9,-1
 160 256 l 1,10,-1
 160 192 l 1,11,-1
 96 192 l 1,8,-1
224 192 m 1,12,-1
 224 256 l 1,13,-1
 288 256 l 1,14,-1
 288 192 l 1,15,-1
 224 192 l 1,12,-1
160 0 m 1,16,-1
 160 192 l 1,17,-1
 224 192 l 1,18,-1
 224 0 l 1,19,-1
 160 0 l 1,16,-1
EndSplineSet
EndChar

StartChar: Z
Encoding: 90 90 91
Width: 384
GlyphClass: 2
Flags: W
LayerCount: 2
Fore
SplineSet
256 192 m 1,0,-1
 256 256 l 1,1,-1
 64 256 l 1,2,-1
 64 320 l 1,3,-1
 320 320 l 1,4,-1
 320 192 l 1,5,-1
 256 192 l 1,0,-1
192 128 m 1,6,-1
 192 192 l 1,7,-1
 256 192 l 1,8,-1
 256 128 l 1,9,-1
 192 128 l 1,6,-1
64 0 m 1,10,-1
 64 64 l 1,11,-1
 128 64 l 1,12,-1
 128 128 l 1,13,-1
 192 128 l 1,14,-1
 192 64 l 1,15,-1
 320 64 l 1,16,-1
 320 0 l 1,17,-1
 64 0 l 1,10,-1
EndSplineSet
EndChar

StartChar: bracketleft
Encoding: 91 91 92
Width: 384
GlyphClass: 2
Flags: W
LayerCount: 2
Fore
SplineSet
128 0 m 1,0,-1
 128 384 l 1,1,-1
 256 384 l 1,2,-1
 256 320 l 1,3,-1
 192 320 l 1,4,-1
 192 64 l 1,5,-1
 256 64 l 1,6,-1
 256 0 l 1,7,-1
 128 0 l 1,0,-1
EndSplineSet
EndChar

StartChar: backslash
Encoding: 92 92 93
Width: 384
GlyphClass: 2
Flags: W
LayerCount: 2
Fore
SplineSet
64 320 m 1,0,-1
 64 384 l 1,1,-1
 128 384 l 1,2,-1
 128 320 l 1,3,-1
 64 320 l 1,0,-1
128 192 m 1,4,-1
 128 320 l 1,5,-1
 192 320 l 1,6,-1
 192 192 l 1,7,-1
 128 192 l 1,4,-1
192 64 m 1,8,-1
 192 192 l 1,9,-1
 256 192 l 1,10,-1
 256 64 l 1,11,-1
 192 64 l 1,8,-1
256 0 m 1,12,-1
 256 64 l 1,13,-1
 320 64 l 1,14,-1
 320 0 l 1,15,-1
 256 0 l 1,12,-1
EndSplineSet
EndChar

StartChar: bracketright
Encoding: 93 93 94
Width: 384
GlyphClass: 2
Flags: W
LayerCount: 2
Fore
SplineSet
128 0 m 1,0,-1
 128 64 l 1,1,-1
 192 64 l 1,2,-1
 192 320 l 1,3,-1
 128 320 l 1,4,-1
 128 384 l 1,5,-1
 256 384 l 1,6,-1
 256 0 l 1,7,-1
 128 0 l 1,0,-1
EndSplineSet
EndChar

StartChar: asciicircum
Encoding: 94 94 95
Width: 384
GlyphClass: 2
Flags: W
LayerCount: 2
Fore
SplineSet
160 256 m 1,0,-1
 160 320 l 1,1,-1
 224 320 l 1,2,-1
 224 256 l 1,3,-1
 160 256 l 1,0,-1
96 192 m 1,4,-1
 96 256 l 1,5,-1
 160 256 l 1,6,-1
 160 192 l 1,7,-1
 96 192 l 1,4,-1
224 192 m 1,8,-1
 224 256 l 1,9,-1
 288 256 l 1,10,-1
 288 192 l 1,11,-1
 224 192 l 1,8,-1
EndSplineSet
EndChar

StartChar: underscore
Encoding: 95 95 96
Width: 384
GlyphClass: 2
Flags: W
LayerCount: 2
Fore
SplineSet
46 0 m 1,0,-1
 46 64 l 1,1,-1
 238 64 l 1,2,-1
 238 0 l 1,3,-1
 46 0 l 1,0,-1
EndSplineSet
EndChar

StartChar: grave
Encoding: 96 96 97
Width: 384
GlyphClass: 2
Flags: W
LayerCount: 2
Fore
SplineSet
256 256 m 5,0,-1
 128 384 l 5,1,-1
 192 384 l 5,2,-1
 256 320 l 5,3,-1
 256 256 l 5,0,-1
EndSplineSet
EndChar

StartChar: a
Encoding: 97 97 98
Width: 384
GlyphClass: 2
Flags: W
LayerCount: 2
Fore
SplineSet
96 192 m 1,0,-1
 96 256 l 1,1,-1
 224 256 l 1,2,-1
 224 192 l 1,3,-1
 96 192 l 1,0,-1
32 64 m 1,4,-1
 32 192 l 1,5,-1
 96 192 l 1,6,-1
 96 64 l 1,7,-1
 32 64 l 1,4,-1
224 64 m 1,8,-1
 224 192 l 1,9,-1
 288 192 l 1,10,-1
 288 64 l 1,11,-1
 224 64 l 1,8,-1
96 0 m 1,12,-1
 96 64 l 1,13,-1
 224 64 l 1,14,-1
 224 0 l 1,15,-1
 96 0 l 1,12,-1
288 0 m 1,16,-1
 288 64 l 1,17,-1
 352 64 l 1,18,-1
 352 0 l 1,19,-1
 288 0 l 1,16,-1
EndSplineSet
EndChar

StartChar: b
Encoding: 98 98 99
Width: 384
GlyphClass: 2
Flags: W
LayerCount: 2
Fore
SplineSet
256 64 m 1,0,-1
 256 0 l 1,1,-1
 64 0 l 1,2,-1
 64 320 l 1,3,-1
 128 320 l 1,4,-1
 128 256 l 1,5,-1
 256 256 l 1,6,-1
 256 192 l 1,7,-1
 128 192 l 1,8,-1
 128 64 l 1,9,-1
 256 64 l 1,0,-1
256 64 m 1,10,-1
 256 192 l 1,11,-1
 320 192 l 1,12,-1
 320 64 l 1,13,-1
 256 64 l 1,10,-1
EndSplineSet
EndChar

StartChar: c
Encoding: 99 99 100
Width: 384
GlyphClass: 2
Flags: W
LayerCount: 2
Fore
SplineSet
160 192 m 1,0,-1
 160 256 l 1,1,-1
 288 256 l 1,2,-1
 288 192 l 1,3,-1
 160 192 l 1,0,-1
96 64 m 1,4,-1
 96 192 l 1,5,-1
 160 192 l 1,6,-1
 160 64 l 1,7,-1
 96 64 l 1,4,-1
160 0 m 1,8,-1
 160 64 l 1,9,-1
 288 64 l 1,10,-1
 288 0 l 1,11,-1
 160 0 l 1,8,-1
EndSplineSet
EndChar

StartChar: d
Encoding: 100 100 101
Width: 384
GlyphClass: 2
Flags: W
LayerCount: 2
Fore
SplineSet
64 64 m 1,0,-1
 64 192 l 1,1,-1
 128 192 l 1,2,-1
 128 64 l 1,3,-1
 256 64 l 1,4,-1
 256 192 l 1,5,-1
 128 192 l 1,6,-1
 128 256 l 1,7,-1
 256 256 l 1,8,-1
 256 320 l 1,9,-1
 320 320 l 1,10,-1
 320 0 l 1,11,-1
 128 0 l 1,12,-1
 128 64 l 1,13,-1
 64 64 l 1,0,-1
EndSplineSet
EndChar

StartChar: e
Encoding: 101 101 102
Width: 384
GlyphClass: 2
Flags: W
LayerCount: 2
Fore
SplineSet
128 192 m 1,0,-1
 128 256 l 1,1,-1
 256 256 l 1,2,-1
 256 192 l 1,3,-1
 128 192 l 1,0,-1
128 0 m 1,4,-1
 128 64 l 1,5,-1
 64 64 l 1,6,-1
 64 192 l 1,7,-1
 128 192 l 1,8,-1
 128 128 l 1,9,-1
 256 128 l 1,10,-1
 256 64 l 1,11,-1
 320 64 l 1,12,-1
 320 0 l 1,13,-1
 128 0 l 1,4,-1
256 128 m 1,14,-1
 256 192 l 1,15,-1
 320 192 l 1,16,-1
 320 128 l 1,17,-1
 256 128 l 1,14,-1
EndSplineSet
EndChar

StartChar: f
Encoding: 102 102 103
Width: 384
GlyphClass: 2
Flags: W
LayerCount: 2
Fore
SplineSet
224 256 m 1,0,-1
 224 320 l 1,1,-1
 288 320 l 1,2,-1
 288 256 l 1,3,-1
 224 256 l 1,0,-1
160 0 m 1,4,-1
 160 128 l 1,5,-1
 96 128 l 1,6,-1
 96 192 l 1,7,-1
 160 192 l 1,8,-1
 160 256 l 1,9,-1
 224 256 l 1,10,-1
 224 192 l 1,11,-1
 288 192 l 1,12,-1
 288 128 l 1,13,-1
 224 128 l 1,14,-1
 224 0 l 1,15,-1
 160 0 l 1,4,-1
EndSplineSet
EndChar

StartChar: g
Encoding: 103 103 104
Width: 384
GlyphClass: 2
Flags: W
LayerCount: 2
Fore
SplineSet
128 192 m 1,0,-1
 128 256 l 1,1,-1
 256 256 l 1,2,-1
 256 192 l 1,3,-1
 128 192 l 1,0,-1
64 64 m 1,4,-1
 64 192 l 1,5,-1
 128 192 l 1,6,-1
 128 64 l 1,7,-1
 256 64 l 1,8,-1
 256 192 l 1,9,-1
 320 192 l 1,10,-1
 320 -128 l 1,11,-1
 256 -128 l 1,12,-1
 256 0 l 1,13,-1
 128 0 l 1,14,-1
 128 64 l 1,15,-1
 64 64 l 1,4,-1
64 -128 m 1,16,-1
 64 -64 l 1,17,-1
 128 -64 l 1,18,-1
 128 -128 l 1,19,-1
 64 -128 l 1,16,-1
128 -192 m 1,20,-1
 128 -128 l 1,21,-1
 256 -128 l 1,22,-1
 256 -192 l 1,23,-1
 128 -192 l 1,20,-1
EndSplineSet
EndChar

StartChar: h
Encoding: 104 104 105
Width: 384
GlyphClass: 2
Flags: W
LayerCount: 2
Fore
SplineSet
64 0 m 1,0,-1
 64 320 l 1,1,-1
 128 320 l 1,2,-1
 128 256 l 1,3,-1
 256 256 l 1,4,-1
 256 192 l 1,5,-1
 128 192 l 1,6,-1
 128 0 l 1,7,-1
 64 0 l 1,0,-1
256 0 m 1,8,-1
 256 192 l 1,9,-1
 320 192 l 1,10,-1
 320 0 l 1,11,-1
 256 0 l 1,8,-1
EndSplineSet
EndChar

StartChar: i
Encoding: 105 105 106
Width: 384
GlyphClass: 2
Flags: W
LayerCount: 2
Fore
SplineSet
160 256 m 1,0,-1
 160 320 l 1,1,-1
 224 320 l 1,2,-1
 224 256 l 1,3,-1
 160 256 l 1,0,-1
160 0 m 1,4,-1
 160 192 l 1,5,-1
 224 192 l 1,6,-1
 224 0 l 1,7,-1
 160 0 l 1,4,-1
EndSplineSet
EndChar

StartChar: j
Encoding: 106 106 107
Width: 384
GlyphClass: 2
Flags: W
LayerCount: 2
Fore
SplineSet
192 256 m 1,0,-1
 192 320 l 1,1,-1
 256 320 l 1,2,-1
 256 256 l 1,3,-1
 192 256 l 1,0,-1
192 -64 m 1,4,-1
 192 192 l 1,5,-1
 256 192 l 1,6,-1
 256 -64 l 1,7,-1
 192 -64 l 1,4,-1
128 -128 m 1,8,-1
 128 -64 l 1,9,-1
 192 -64 l 1,10,-1
 192 -128 l 1,11,-1
 128 -128 l 1,8,-1
EndSplineSet
EndChar

StartChar: k
Encoding: 107 107 108
Width: 384
GlyphClass: 2
Flags: W
LayerCount: 2
Fore
SplineSet
96 0 m 1,0,-1
 96 320 l 1,1,-1
 160 320 l 1,2,-1
 160 192 l 1,3,-1
 224 192 l 1,4,-1
 224 128 l 1,5,-1
 160 128 l 1,6,-1
 160 0 l 1,7,-1
 96 0 l 1,0,-1
224 192 m 1,8,-1
 224 320 l 1,9,-1
 288 320 l 1,10,-1
 288 192 l 1,11,-1
 224 192 l 1,8,-1
224 0 m 1,12,-1
 224 128 l 1,13,-1
 288 128 l 1,14,-1
 288 0 l 1,15,-1
 224 0 l 1,12,-1
EndSplineSet
EndChar

StartChar: l
Encoding: 108 108 109
Width: 384
GlyphClass: 2
Flags: W
LayerCount: 2
Fore
SplineSet
128 64 m 1,0,-1
 128 320 l 1,1,-1
 192 320 l 1,2,-1
 192 64 l 1,3,-1
 128 64 l 1,0,-1
192 0 m 1,4,-1
 192 64 l 1,5,-1
 256 64 l 1,6,-1
 256 0 l 1,7,-1
 192 0 l 1,4,-1
EndSplineSet
EndChar

StartChar: m
Encoding: 109 109 110
Width: 384
GlyphClass: 2
Flags: W
LayerCount: 2
Fore
SplineSet
32 0 m 1,0,-1
 32 256 l 1,1,-1
 160 256 l 1,2,-1
 160 192 l 1,3,-1
 96 192 l 1,4,-1
 96 0 l 1,5,-1
 32 0 l 1,0,-1
288 0 m 1,6,-1
 288 192 l 1,7,-1
 224 192 l 1,8,-1
 224 256 l 1,9,-1
 352 256 l 1,10,-1
 352 0 l 1,11,-1
 288 0 l 1,6,-1
160 64 m 1,12,-1
 160 192 l 1,13,-1
 224 192 l 1,14,-1
 224 64 l 1,15,-1
 160 64 l 1,12,-1
EndSplineSet
EndChar

StartChar: n
Encoding: 110 110 111
Width: 384
GlyphClass: 2
Flags: W
LayerCount: 2
Fore
SplineSet
64 0 m 1,0,-1
 64 256 l 1,1,-1
 256 256 l 1,2,-1
 256 192 l 1,3,-1
 128 192 l 1,4,-1
 128 0 l 1,5,-1
 64 0 l 1,0,-1
256 0 m 1,6,-1
 256 192 l 1,7,-1
 320 192 l 1,8,-1
 320 0 l 1,9,-1
 256 0 l 1,6,-1
EndSplineSet
EndChar

StartChar: o
Encoding: 111 111 112
Width: 384
GlyphClass: 2
Flags: W
LayerCount: 2
Fore
SplineSet
128 192 m 1,0,-1
 128 256 l 1,1,-1
 256 256 l 1,2,-1
 256 192 l 1,3,-1
 128 192 l 1,0,-1
64 64 m 1,4,-1
 64 192 l 1,5,-1
 128 192 l 1,6,-1
 128 64 l 1,7,-1
 64 64 l 1,4,-1
256 64 m 1,8,-1
 256 192 l 1,9,-1
 320 192 l 1,10,-1
 320 64 l 1,11,-1
 256 64 l 1,8,-1
128 0 m 1,12,-1
 128 64 l 1,13,-1
 256 64 l 1,14,-1
 256 0 l 1,15,-1
 128 0 l 1,12,-1
EndSplineSet
EndChar

StartChar: p
Encoding: 112 112 113
Width: 384
GlyphClass: 2
Flags: W
LayerCount: 2
Fore
SplineSet
256 64 m 1,0,-1
 256 0 l 1,1,-1
 128 0 l 1,2,-1
 128 -192 l 1,3,-1
 64 -192 l 1,4,-1
 64 256 l 1,5,-1
 256 256 l 1,6,-1
 256 192 l 1,7,-1
 128 192 l 1,8,-1
 128 64 l 1,9,-1
 256 64 l 1,0,-1
256 64 m 1,10,-1
 256 192 l 1,11,-1
 320 192 l 1,12,-1
 320 64 l 1,13,-1
 256 64 l 1,10,-1
EndSplineSet
EndChar

StartChar: q
Encoding: 113 113 114
Width: 384
GlyphClass: 2
Flags: W
LayerCount: 2
Fore
SplineSet
96 192 m 1,0,-1
 96 256 l 1,1,-1
 224 256 l 1,2,-1
 224 192 l 1,3,-1
 96 192 l 1,0,-1
32 64 m 1,4,-1
 32 192 l 1,5,-1
 96 192 l 1,6,-1
 96 64 l 1,7,-1
 224 64 l 1,8,-1
 224 192 l 1,9,-1
 288 192 l 1,10,-1
 288 -64 l 1,11,-1
 352 -64 l 1,12,-1
 352 -128 l 1,13,-1
 288 -128 l 1,14,-1
 288 -192 l 1,15,-1
 224 -192 l 1,16,-1
 224 0 l 1,17,-1
 96 0 l 1,18,-1
 96 64 l 1,19,-1
 32 64 l 1,4,-1
EndSplineSet
EndChar

StartChar: r
Encoding: 114 114 115
Width: 384
GlyphClass: 2
Flags: W
LayerCount: 2
Fore
SplineSet
64 0 m 1,0,-1
 64 256 l 1,1,-1
 128 256 l 1,2,-1
 128 192 l 1,3,-1
 192 192 l 1,4,-1
 192 128 l 1,5,-1
 128 128 l 1,6,-1
 128 0 l 1,7,-1
 64 0 l 1,0,-1
192 192 m 1,8,-1
 192 256 l 1,9,-1
 320 256 l 1,10,-1
 320 192 l 1,11,-1
 192 192 l 1,8,-1
EndSplineSet
EndChar

StartChar: s
Encoding: 115 115 116
Width: 384
GlyphClass: 2
Flags: W
LayerCount: 2
Fore
SplineSet
96 128 m 1,0,-1
 96 192 l 1,1,-1
 160 192 l 1,2,-1
 160 256 l 1,3,-1
 288 256 l 1,4,-1
 288 192 l 1,5,-1
 224 192 l 1,6,-1
 224 128 l 1,7,-1
 96 128 l 1,0,-1
224 64 m 1,8,-1
 224 128 l 1,9,-1
 288 128 l 1,10,-1
 288 64 l 1,11,-1
 224 64 l 1,8,-1
96 0 m 1,12,-1
 96 64 l 1,13,-1
 224 64 l 1,14,-1
 224 0 l 1,15,-1
 96 0 l 1,12,-1
EndSplineSet
EndChar

StartChar: t
Encoding: 116 116 117
Width: 384
GlyphClass: 2
Flags: W
LayerCount: 2
Fore
SplineSet
110 64 m 1,0,-1
 110 192 l 1,1,-1
 46 192 l 1,2,-1
 46 256 l 1,3,-1
 110 256 l 1,4,-1
 110 320 l 1,5,-1
 174 320 l 1,6,-1
 174 256 l 1,7,-1
 238 256 l 1,8,-1
 238 192 l 1,9,-1
 174 192 l 1,10,-1
 174 64 l 1,11,-1
 110 64 l 1,0,-1
174 0 m 1,12,-1
 174 64 l 1,13,-1
 238 64 l 1,14,-1
 238 0 l 1,15,-1
 174 0 l 1,12,-1
EndSplineSet
EndChar

StartChar: u
Encoding: 117 117 118
Width: 384
GlyphClass: 2
Flags: W
LayerCount: 2
Fore
SplineSet
32 64 m 1,0,-1
 32 256 l 1,1,-1
 96 256 l 1,2,-1
 96 64 l 1,3,-1
 32 64 l 1,0,-1
224 64 m 1,4,-1
 224 256 l 1,5,-1
 288 256 l 1,6,-1
 288 64 l 1,7,-1
 224 64 l 1,4,-1
96 0 m 1,8,-1
 96 64 l 1,9,-1
 224 64 l 1,10,-1
 224 0 l 1,11,-1
 96 0 l 1,8,-1
288 0 m 1,12,-1
 288 64 l 1,13,-1
 352 64 l 1,14,-1
 352 0 l 1,15,-1
 288 0 l 1,12,-1
EndSplineSet
EndChar

StartChar: v
Encoding: 118 118 119
Width: 384
GlyphClass: 2
Flags: W
LayerCount: 2
Fore
SplineSet
96 64 m 1,0,-1
 96 256 l 1,1,-1
 160 256 l 1,2,-1
 160 64 l 1,3,-1
 96 64 l 1,0,-1
224 64 m 1,4,-1
 224 256 l 1,5,-1
 288 256 l 1,6,-1
 288 64 l 1,7,-1
 224 64 l 1,4,-1
160 0 m 1,8,-1
 160 64 l 1,9,-1
 224 64 l 1,10,-1
 224 0 l 1,11,-1
 160 0 l 1,8,-1
EndSplineSet
EndChar

StartChar: w
Encoding: 119 119 120
Width: 384
GlyphClass: 2
Flags: W
LayerCount: 2
Fore
SplineSet
32 64 m 1,0,-1
 32 256 l 1,1,-1
 96 256 l 1,2,-1
 96 64 l 1,3,-1
 32 64 l 1,0,-1
288 64 m 1,4,-1
 288 256 l 1,5,-1
 352 256 l 1,6,-1
 352 64 l 1,7,-1
 288 64 l 1,4,-1
160 64 m 1,8,-1
 160 192 l 1,9,-1
 224 192 l 1,10,-1
 224 64 l 1,11,-1
 160 64 l 1,8,-1
96 0 m 1,12,-1
 96 64 l 1,13,-1
 160 64 l 1,14,-1
 160 0 l 1,15,-1
 96 0 l 1,12,-1
224 0 m 1,16,-1
 224 64 l 1,17,-1
 288 64 l 1,18,-1
 288 0 l 1,19,-1
 224 0 l 1,16,-1
EndSplineSet
EndChar

StartChar: x
Encoding: 120 120 121
Width: 384
GlyphClass: 2
Flags: W
LayerCount: 2
Fore
SplineSet
96 192 m 1,0,-1
 96 256 l 1,1,-1
 160 256 l 1,2,-1
 160 192 l 1,3,-1
 96 192 l 1,0,-1
224 192 m 1,4,-1
 224 256 l 1,5,-1
 288 256 l 1,6,-1
 288 192 l 1,7,-1
 224 192 l 1,4,-1
160 128 m 1,8,-1
 160 192 l 1,9,-1
 224 192 l 1,10,-1
 224 128 l 1,11,-1
 160 128 l 1,8,-1
96 0 m 1,12,-1
 96 128 l 1,13,-1
 160 128 l 1,14,-1
 160 0 l 1,15,-1
 96 0 l 1,12,-1
224 0 m 1,16,-1
 224 128 l 1,17,-1
 288 128 l 1,18,-1
 288 0 l 1,19,-1
 224 0 l 1,16,-1
EndSplineSet
EndChar

StartChar: y
Encoding: 121 121 122
Width: 384
GlyphClass: 2
Flags: W
LayerCount: 2
Fore
SplineSet
64 64 m 1,0,-1
 64 256 l 1,1,-1
 128 256 l 1,2,-1
 128 64 l 1,3,-1
 256 64 l 1,4,-1
 256 256 l 1,5,-1
 320 256 l 1,6,-1
 320 -128 l 1,7,-1
 256 -128 l 1,8,-1
 256 0 l 1,9,-1
 128 0 l 1,10,-1
 128 64 l 1,11,-1
 64 64 l 1,0,-1
64 -128 m 1,12,-1
 64 -64 l 1,13,-1
 128 -64 l 1,14,-1
 128 -128 l 1,15,-1
 64 -128 l 1,12,-1
128 -192 m 1,16,-1
 128 -128 l 1,17,-1
 256 -128 l 1,18,-1
 256 -192 l 1,19,-1
 128 -192 l 1,16,-1
EndSplineSet
EndChar

StartChar: z
Encoding: 122 122 123
Width: 384
GlyphClass: 2
Flags: W
LayerCount: 2
Fore
SplineSet
192 128 m 1,0,-1
 192 192 l 1,1,-1
 64 192 l 1,2,-1
 64 256 l 1,3,-1
 320 256 l 1,4,-1
 320 192 l 1,5,-1
 256 192 l 1,6,-1
 256 128 l 1,7,-1
 192 128 l 1,0,-1
64 0 m 1,8,-1
 64 64 l 1,9,-1
 128 64 l 1,10,-1
 128 128 l 1,11,-1
 192 128 l 1,12,-1
 192 64 l 1,13,-1
 320 64 l 1,14,-1
 320 0 l 1,15,-1
 64 0 l 1,8,-1
EndSplineSet
EndChar

StartChar: braceleft
Encoding: 123 123 124
Width: 384
GlyphClass: 2
Flags: W
LayerCount: 2
Fore
SplineSet
224 384 m 1,0,-1
 224 448 l 1,1,-1
 288 448 l 1,2,-1
 288 384 l 1,3,-1
 224 384 l 1,0,-1
160 256 m 1,4,-1
 160 384 l 1,5,-1
 224 384 l 1,6,-1
 224 256 l 1,7,-1
 160 256 l 1,4,-1
96 192 m 1,8,-1
 96 256 l 1,9,-1
 160 256 l 1,10,-1
 160 192 l 1,11,-1
 96 192 l 1,8,-1
160 64 m 1,12,-1
 160 192 l 1,13,-1
 224 192 l 1,14,-1
 224 64 l 1,15,-1
 160 64 l 1,12,-1
224 0 m 1,16,-1
 224 64 l 1,17,-1
 288 64 l 1,18,-1
 288 0 l 1,19,-1
 224 0 l 1,16,-1
EndSplineSet
EndChar

StartChar: bar
Encoding: 124 124 125
Width: 384
GlyphClass: 2
Flags: W
LayerCount: 2
Fore
SplineSet
160 0 m 1,0,-1
 160 448 l 1,1,-1
 224 448 l 1,2,-1
 224 0 l 1,3,-1
 160 0 l 1,0,-1
EndSplineSet
EndChar

StartChar: braceright
Encoding: 125 125 126
Width: 384
GlyphClass: 2
Flags: W
LayerCount: 2
Fore
SplineSet
96 384 m 1,0,-1
 96 448 l 1,1,-1
 160 448 l 1,2,-1
 160 384 l 1,3,-1
 96 384 l 1,0,-1
160 256 m 1,4,-1
 160 384 l 1,5,-1
 224 384 l 1,6,-1
 224 256 l 1,7,-1
 160 256 l 1,4,-1
224 192 m 1,8,-1
 224 256 l 1,9,-1
 288 256 l 1,10,-1
 288 192 l 1,11,-1
 224 192 l 1,8,-1
160 64 m 1,12,-1
 160 192 l 1,13,-1
 224 192 l 1,14,-1
 224 64 l 1,15,-1
 160 64 l 1,12,-1
96 0 m 1,16,-1
 96 64 l 1,17,-1
 160 64 l 1,18,-1
 160 0 l 1,19,-1
 96 0 l 1,16,-1
EndSplineSet
EndChar

StartChar: asciitilde
Encoding: 126 126 127
Width: 384
GlyphClass: 2
Flags: W
LayerCount: 2
Fore
SplineSet
96 256 m 1,0,-1
 96 320 l 1,1,-1
 160 320 l 1,2,-1
 160 256 l 1,3,-1
 96 256 l 1,0,-1
32 192 m 1,4,-1
 32 256 l 1,5,-1
 96 256 l 1,6,-1
 96 192 l 1,7,-1
 32 192 l 1,4,-1
160 192 m 1,8,-1
 160 256 l 1,9,-1
 224 256 l 1,10,-1
 224 192 l 1,11,-1
 160 192 l 1,8,-1
288 192 m 1,12,-1
 288 256 l 1,13,-1
 352 256 l 1,14,-1
 352 192 l 1,15,-1
 288 192 l 1,12,-1
224 128 m 1,16,-1
 224 192 l 1,17,-1
 288 192 l 1,18,-1
 288 128 l 1,19,-1
 224 128 l 1,16,-1
EndSplineSet
EndChar

StartChar: sterling
Encoding: 163 163 164
Width: 384
GlyphClass: 2
Flags: W
LayerCount: 2
Fore
SplineSet
192 256 m 1,0,-1
 192 320 l 1,1,-1
 320 320 l 1,2,-1
 320 256 l 1,3,-1
 192 256 l 1,0,-1
64 0 m 1,4,-1
 64 64 l 1,5,-1
 128 64 l 1,6,-1
 128 128 l 1,7,-1
 64 128 l 1,8,-1
 64 192 l 1,9,-1
 128 192 l 1,10,-1
 128 256 l 1,11,-1
 192 256 l 1,12,-1
 192 192 l 1,13,-1
 256 192 l 1,14,-1
 256 128 l 1,15,-1
 192 128 l 1,16,-1
 192 64 l 1,17,-1
 320 64 l 1,18,-1
 320 0 l 1,19,-1
 64 0 l 1,4,-1
EndSplineSet
EndChar

StartChar: Aacute
Encoding: 193 193 194
Width: 384
GlyphClass: 2
Flags: W
LayerCount: 2
Fore
SplineSet
193 419 m 5,0,-1
 128 355 l 5,1,-1
 192 355 l 5,2,-1
 256 419 l 5,3,-1
 193 419 l 5,0,-1
128 256 m 1,4,-1
 128 320 l 1,5,-1
 256 320 l 1,6,-1
 256 256 l 1,7,-1
 128 256 l 1,4,-1
64 0 m 1,8,-1
 64 256 l 1,9,-1
 128 256 l 1,10,-1
 128 128 l 1,11,-1
 256 128 l 1,12,-1
 256 256 l 1,13,-1
 320 256 l 1,14,-1
 320 0 l 1,15,-1
 256 0 l 1,16,-1
 256 64 l 1,17,-1
 128 64 l 1,18,-1
 128 0 l 1,19,-1
 64 0 l 1,8,-1
EndSplineSet
EndChar

StartChar: Eacute
Encoding: 201 201 202
Width: 384
GlyphClass: 2
Flags: W
LayerCount: 2
Fore
SplineSet
193 419 m 5,0,-1
 128 355 l 5,1,-1
 192 355 l 5,2,-1
 256 419 l 5,3,-1
 193 419 l 5,0,-1
64 0 m 1,4,-1
 64 320 l 1,5,-1
 320 320 l 1,6,-1
 320 256 l 1,7,-1
 128 256 l 1,8,-1
 128 192 l 1,9,-1
 256 192 l 1,10,-1
 256 128 l 1,11,-1
 128 128 l 1,12,-1
 128 64 l 1,13,-1
 320 64 l 1,14,-1
 320 0 l 1,15,-1
 64 0 l 1,4,-1
EndSplineSet
EndChar

StartChar: Iacute
Encoding: 205 205 206
Width: 384
GlyphClass: 2
Flags: W
LayerCount: 2
Fore
SplineSet
193 419 m 5,0,-1
 128 355 l 5,1,-1
 192 355 l 5,2,-1
 256 419 l 5,3,-1
 193 419 l 5,0,-1
64 0 m 1,4,-1
 64 64 l 1,5,-1
 160 64 l 1,6,-1
 160 256 l 1,7,-1
 64 256 l 1,8,-1
 64 320 l 1,9,-1
 320 320 l 1,10,-1
 320 256 l 1,11,-1
 224 256 l 1,12,-1
 224 64 l 1,13,-1
 320 64 l 1,14,-1
 320 0 l 1,15,-1
 64 0 l 1,4,-1
EndSplineSet
EndChar

StartChar: Oacute
Encoding: 211 211 212
Width: 384
GlyphClass: 2
Flags: W
LayerCount: 2
Fore
SplineSet
193 419 m 5,0,-1
 128 355 l 5,1,-1
 192 355 l 5,2,-1
 256 419 l 5,3,-1
 193 419 l 5,0,-1
128 256 m 1,4,-1
 128 320 l 1,5,-1
 256 320 l 1,6,-1
 256 256 l 1,7,-1
 128 256 l 1,4,-1
64 64 m 1,8,-1
 64 256 l 1,9,-1
 128 256 l 1,10,-1
 128 64 l 1,11,-1
 64 64 l 1,8,-1
256 64 m 1,12,-1
 256 256 l 1,13,-1
 320 256 l 1,14,-1
 320 64 l 1,15,-1
 256 64 l 1,12,-1
128 0 m 1,16,-1
 128 64 l 1,17,-1
 256 64 l 1,18,-1
 256 0 l 1,19,-1
 128 0 l 1,16,-1
EndSplineSet
EndChar

StartChar: multiply
Encoding: 215 215 216
Width: 384
GlyphClass: 2
Flags: W
LayerCount: 2
Fore
SplineSet
32 256 m 1,0,-1
 32 320 l 1,1,-1
 96 320 l 1,2,-1
 96 256 l 1,3,-1
 32 256 l 1,0,-1
288 256 m 1,4,-1
 288 320 l 1,5,-1
 352 320 l 1,6,-1
 352 256 l 1,7,-1
 288 256 l 1,4,-1
96 192 m 1,8,-1
 96 256 l 1,9,-1
 160 256 l 1,10,-1
 160 192 l 1,11,-1
 96 192 l 1,8,-1
224 192 m 1,12,-1
 224 256 l 1,13,-1
 288 256 l 1,14,-1
 288 192 l 1,15,-1
 224 192 l 1,12,-1
160 128 m 1,16,-1
 160 192 l 1,17,-1
 224 192 l 1,18,-1
 224 128 l 1,19,-1
 160 128 l 1,16,-1
96 64 m 1,20,-1
 96 128 l 1,21,-1
 160 128 l 1,22,-1
 160 64 l 1,23,-1
 96 64 l 1,20,-1
224 64 m 1,24,-1
 224 128 l 1,25,-1
 288 128 l 1,26,-1
 288 64 l 1,27,-1
 224 64 l 1,24,-1
32 0 m 1,28,-1
 32 64 l 1,29,-1
 96 64 l 1,30,-1
 96 0 l 1,31,-1
 32 0 l 1,28,-1
288 0 m 1,32,-1
 288 64 l 1,33,-1
 352 64 l 1,34,-1
 352 0 l 1,35,-1
 288 0 l 1,32,-1
EndSplineSet
EndChar

StartChar: Uacute
Encoding: 218 218 219
Width: 384
GlyphClass: 2
Flags: W
LayerCount: 2
Fore
SplineSet
193 419 m 5,0,-1
 128 355 l 5,1,-1
 192 355 l 5,2,-1
 256 419 l 5,3,-1
 193 419 l 5,0,-1
64 64 m 1,4,-1
 64 320 l 1,5,-1
 128 320 l 1,6,-1
 128 64 l 1,7,-1
 64 64 l 1,4,-1
256 64 m 1,8,-1
 256 320 l 1,9,-1
 320 320 l 1,10,-1
 320 64 l 1,11,-1
 256 64 l 1,8,-1
128 0 m 1,12,-1
 128 64 l 1,13,-1
 256 64 l 1,14,-1
 256 0 l 1,15,-1
 128 0 l 1,12,-1
EndSplineSet
EndChar

StartChar: aacute
Encoding: 225 225 226
Width: 384
GlyphClass: 2
Flags: W
LayerCount: 2
Fore
SplineSet
193 344 m 5,0,-1
 128 280 l 5,1,-1
 192 280 l 5,2,-1
 256 344 l 5,3,-1
 193 344 l 5,0,-1
96 192 m 1,4,-1
 96 256 l 1,5,-1
 224 256 l 1,6,-1
 224 192 l 1,7,-1
 96 192 l 1,4,-1
32 64 m 1,8,-1
 32 192 l 1,9,-1
 96 192 l 1,10,-1
 96 64 l 1,11,-1
 32 64 l 1,8,-1
224 64 m 1,12,-1
 224 192 l 1,13,-1
 288 192 l 1,14,-1
 288 64 l 1,15,-1
 224 64 l 1,12,-1
96 0 m 1,16,-1
 96 64 l 1,17,-1
 224 64 l 1,18,-1
 224 0 l 1,19,-1
 96 0 l 1,16,-1
288 0 m 1,20,-1
 288 64 l 1,21,-1
 352 64 l 1,22,-1
 352 0 l 1,23,-1
 288 0 l 1,20,-1
EndSplineSet
EndChar

StartChar: eacute
Encoding: 233 233 234
Width: 384
GlyphClass: 2
Flags: W
LayerCount: 2
Fore
SplineSet
193 344 m 5,0,-1
 128 280 l 5,1,-1
 192 280 l 5,2,-1
 256 344 l 5,3,-1
 193 344 l 5,0,-1
128 192 m 1,4,-1
 128 256 l 1,5,-1
 256 256 l 1,6,-1
 256 192 l 1,7,-1
 128 192 l 1,4,-1
128 0 m 1,8,-1
 128 64 l 1,9,-1
 64 64 l 1,10,-1
 64 192 l 1,11,-1
 128 192 l 1,12,-1
 128 128 l 1,13,-1
 256 128 l 1,14,-1
 256 64 l 1,15,-1
 320 64 l 1,16,-1
 320 0 l 1,17,-1
 128 0 l 1,8,-1
256 128 m 1,18,-1
 256 192 l 1,19,-1
 320 192 l 1,20,-1
 320 128 l 1,21,-1
 256 128 l 1,18,-1
EndSplineSet
EndChar

StartChar: iacute
Encoding: 237 237 238
Width: 384
GlyphClass: 2
Flags: W
LayerCount: 2
Fore
SplineSet
193 344 m 5,0,-1
 128 280 l 5,1,-1
 192 280 l 5,2,-1
 256 344 l 5,3,-1
 193 344 l 5,0,-1
224 192 m 1,4,-1
 160 192 l 1025,5,-1
160 0 m 1,6,-1
 160 192 l 1,7,-1
 224 192 l 1,8,-1
 224 0 l 1,9,-1
 160 0 l 1,6,-1
EndSplineSet
EndChar

StartChar: oacute
Encoding: 243 243 244
Width: 384
GlyphClass: 2
Flags: W
LayerCount: 2
Fore
SplineSet
193 344 m 5,0,-1
 128 280 l 5,1,-1
 192 280 l 5,2,-1
 256 344 l 5,3,-1
 193 344 l 5,0,-1
128 192 m 1,4,-1
 128 256 l 1,5,-1
 256 256 l 1,6,-1
 256 192 l 1,7,-1
 128 192 l 1,4,-1
64 64 m 1,8,-1
 64 192 l 1,9,-1
 128 192 l 1,10,-1
 128 64 l 1,11,-1
 64 64 l 1,8,-1
256 64 m 1,12,-1
 256 192 l 1,13,-1
 320 192 l 1,14,-1
 320 64 l 1,15,-1
 256 64 l 1,12,-1
128 0 m 1,16,-1
 128 64 l 1,17,-1
 256 64 l 1,18,-1
 256 0 l 1,19,-1
 128 0 l 1,16,-1
EndSplineSet
EndChar

StartChar: divide
Encoding: 247 247 248
Width: 384
GlyphClass: 2
Flags: W
LayerCount: 2
Fore
SplineSet
160 256 m 1,0,-1
 160 320 l 1,1,-1
 224 320 l 1,2,-1
 224 256 l 1,3,-1
 160 256 l 1,0,-1
32 128 m 1,4,-1
 32 192 l 1,5,-1
 352 192 l 1,6,-1
 352 128 l 1,7,-1
 32 128 l 1,4,-1
160 0 m 1,8,-1
 160 64 l 1,9,-1
 224 64 l 1,10,-1
 224 0 l 1,11,-1
 160 0 l 1,8,-1
EndSplineSet
EndChar

StartChar: quoteleft
Encoding: 8216 8216 249
Width: 128
GlyphClass: 2
Flags: W
LayerCount: 2
Fore
SplineSet
32 256 m 1,0,-1
 32 320 l 1,1,-1
 96 384 l 1,2,-1
 96 256 l 1,3,-1
 32 256 l 1,0,-1
EndSplineSet
EndChar

StartChar: quoteright
Encoding: 8217 8217 250
Width: 128
GlyphClass: 2
Flags: W
LayerCount: 2
Fore
SplineSet
32 256 m 1,0,-1
 32 384 l 1,1,-1
 96 384 l 1,2,-1
 96 320 l 1,3,-1
 32 256 l 1,0,-1
EndSplineSet
EndChar

StartChar: quotedblleft
Encoding: 8220 8220 251
Width: 256
GlyphClass: 2
Flags: W
LayerCount: 2
Fore
SplineSet
96 256 m 1,0,-1
 32 320 l 1,1,-1
 32 384 l 1,2,-1
 96 384 l 1,3,-1
 96 256 l 1,0,-1
224 256 m 1,4,-1
 160 320 l 1,5,-1
 160 384 l 1,6,-1
 224 384 l 1,7,-1
 224 256 l 1,4,-1
EndSplineSet
EndChar

StartChar: quotedblright
Encoding: 8221 8221 252
Width: 256
GlyphClass: 2
Flags: W
LayerCount: 2
Fore
SplineSet
32 256 m 1,0,-1
 32 384 l 1,1,-1
 96 384 l 1,2,-1
 96 320 l 1,3,-1
 32 256 l 1,0,-1
160 256 m 1,4,-1
 160 384 l 1,5,-1
 224 384 l 1,6,-1
 224 320 l 1,7,-1
 160 256 l 1,4,-1
EndSplineSet
EndChar

StartChar: uacute
Encoding: 250 250 253
Width: 384
Flags: W
LayerCount: 2
Fore
SplineSet
193 344 m 5,0,-1
 128 280 l 5,1,-1
 192 280 l 5,2,-1
 256 344 l 5,3,-1
 193 344 l 5,0,-1
32 64 m 1,4,-1
 32 256 l 1,5,-1
 96 256 l 1,6,-1
 96 64 l 1,7,-1
 32 64 l 1,4,-1
224 64 m 1,8,-1
 224 256 l 1,9,-1
 288 256 l 1,10,-1
 288 64 l 1,11,-1
 224 64 l 1,8,-1
96 0 m 1,12,-1
 96 64 l 1,13,-1
 224 64 l 1,14,-1
 224 0 l 1,15,-1
 96 0 l 1,12,-1
288 0 m 1,16,-1
 288 64 l 1,17,-1
 352 64 l 1,18,-1
 352 0 l 1,19,-1
 288 0 l 1,16,-1
EndSplineSet
EndChar

StartChar: udieresis
Encoding: 252 252 254
Width: 384
Flags: W
LayerCount: 2
Fore
SplineSet
32 291 m 1,0,-1
 32 355 l 1,1,-1
 96 355 l 1,2,-1
 96 291 l 1,3,-1
 32 291 l 1,0,-1
224 291 m 1,4,-1
 224 355 l 1,5,-1
 288 355 l 1,6,-1
 288 291 l 1,7,-1
 224 291 l 1,4,-1
32 64 m 1,8,-1
 32 256 l 1,9,-1
 96 256 l 1,10,-1
 96 64 l 1,11,-1
 32 64 l 1,8,-1
224 64 m 1,12,-1
 224 256 l 1,13,-1
 288 256 l 1,14,-1
 288 64 l 1,15,-1
 224 64 l 1,12,-1
96 0 m 1,16,-1
 96 64 l 1,17,-1
 224 64 l 1,18,-1
 224 0 l 1,19,-1
 96 0 l 1,16,-1
288 0 m 1,20,-1
 288 64 l 1,21,-1
 352 64 l 1,22,-1
 352 0 l 1,23,-1
 288 0 l 1,20,-1
EndSplineSet
EndChar
